# Blender 3.3.0
# www.blender.org
o CylinderHolder
v -0.013925 1.000000 -0.006481
v 0.013925 1.000000 -0.006481
v 0.015984 0.000000 -0.006072
v 0.027790 0.000000 -0.013960
v 0.033619 1.000000 -0.026175
v 0.038448 0.000000 -0.039690
v 0.035678 0.000000 -0.053616
v -0.036389 1.000000 -0.040100
v -0.023672 0.000000 -0.065421
v -0.023672 0.000000 -0.013960
v 0.015984 0.000000 -0.073309
v 0.013925 1.000000 -0.073719
v -0.011866 0.000000 -0.073309
v -0.025731 1.000000 -0.065831
v -0.033619 1.000000 -0.026175
v -0.031560 0.000000 -0.025765
v -0.025731 1.000000 -0.014369
v -0.000000 1.000000 -0.003711
v 0.002059 0.000000 -0.003302
v 0.025731 1.000000 -0.014369
v 0.035678 0.000000 -0.025765
v 0.033619 1.000000 -0.054025
v 0.025731 1.000000 -0.065831
v -0.000000 1.000000 -0.076489
v 0.002059 0.000000 -0.076079
v -0.033619 1.000000 -0.054025
v -0.031560 0.000000 -0.053616
v -0.034330 0.000000 -0.039690
v -0.011866 0.000000 -0.006072
v 0.027790 0.000000 -0.065421
v -0.013925 1.000000 -0.073719
v 0.036389 1.000000 -0.040100
v -0.013925 1.000000 -0.006481
v 0.013925 1.000000 -0.006481
v 0.015984 0.000000 -0.006072
v 0.027790 0.000000 -0.013960
v 0.033619 1.000000 -0.026175
v 0.038448 0.000000 -0.039690
v 0.035678 0.000000 -0.053616
v -0.036389 1.000000 -0.040100
v -0.023672 0.000000 -0.065421
v -0.023672 0.000000 -0.013960
v 0.015984 0.000000 -0.073309
v 0.013925 1.000000 -0.073719
v -0.011866 0.000000 -0.073309
v -0.025731 1.000000 -0.065831
v -0.033619 1.000000 -0.026175
v -0.031560 0.000000 -0.025765
v -0.025731 1.000000 -0.014369
v -0.000000 1.000000 -0.003711
v 0.002059 0.000000 -0.003302
v 0.025731 1.000000 -0.014369
v 0.035678 0.000000 -0.025765
v 0.033619 1.000000 -0.054025
v 0.025731 1.000000 -0.065831
v -0.000000 1.000000 -0.076489
v 0.002059 0.000000 -0.076079
v -0.033619 1.000000 -0.054025
v -0.031560 0.000000 -0.053616
v -0.034330 0.000000 -0.039690
v -0.011866 0.000000 -0.006072
v 0.027790 0.000000 -0.065421
v -0.013925 1.000000 -0.073719
v 0.036389 1.000000 -0.040100
vn -0.9139 0.1045 -0.3923
vn -0.6960 -0.1094 -0.7097
vn -0.6964 0.1059 -0.7098
vn 0.9235 -0.1062 0.3685
vn 0.7097 0.1102 0.6958
vn 0.9231 0.1103 0.3684
vn -0.7098 -0.1096 0.6959
vn -0.9236 0.1065 0.3684
vn -0.7101 0.1072 0.6958
vn -0.3754 -0.1087 -0.9205
vn -0.3757 0.1064 -0.9206
vn 0.9132 0.1096 -0.3924
vn 0.9944 -0.1047 -0.0139
vn 0.9936 0.1121 -0.0143
vn 0.0001 -0.1082 0.9941
vn -0.3856 0.1081 0.9163
vn -0.0002 0.1090 0.9940
vn -0.0002 -0.1079 -0.9942
vn -0.0002 0.1071 -0.9942
vn 0.7102 -0.1067 0.6958
vn 0.3852 0.1097 0.9163
vn -0.9232 -0.1100 0.3682
vn -0.9943 0.1060 -0.0141
vn 0.3756 -0.1071 -0.9206
vn 0.3753 0.1080 -0.9206
vn -0.3856 -0.1090 0.9162
vn 0.6959 -0.1065 -0.7102
vn 0.6954 0.1087 -0.7103
vn -0.9938 -0.1101 -0.0141
vn 0.3852 -0.1074 0.9166
vn 0.9137 -0.1061 -0.3923
vn -0.0000 -1.0000 -0.0000
vn -0.0000 1.0000 -0.0000
vn -0.9130 -0.1119 -0.3924
vt 0.390139 0.713058
vt 0.497178 0.713058
vt 0.503685 0.286942
vt 0.555870 0.286942
vt 0.606227 0.713058
vt 0.659534 0.286942
vt 0.711418 0.286942
vt 0.233419 0.713058
vt 0.125405 0.286942
vt 0.343995 0.286942
vt 0.816255 0.286942
vt 0.823928 0.713058
vt 0.071062 0.286942
vt 0.923293 0.286942
vt 0.129755 0.713058
vt 0.285303 0.713058
vt 0.289652 0.286942
vt 0.337488 0.713058
vt 0.443361 0.713058
vt 0.451034 0.286942
vt 0.551521 0.713058
vt 0.607754 0.286942
vt 0.715768 0.713058
vt 0.770111 0.713058
vt 0.877149 0.713058
vt 0.869476 0.286942
vt 0.181639 0.713058
vt 0.180111 0.286942
vt 0.234946 0.286942
vt 0.397812 0.286942
vt 0.763604 0.286942
vt 0.077569 0.713058
vt 0.929800 0.713058
vt 0.661062 0.713058
vt 0.991967 0.941408
vt 0.997744 0.969954
vt 0.997695 0.029799
vt 0.991967 0.016100
vt 0.981644 0.994223
vt 0.967698 0.000000
vt 0.952850 0.000049
vt 0.952850 0.925357
vt 0.928828 0.058592
vt 0.981644 0.068916
vt 0.928688 0.016310
vt 0.928828 0.983900
vt 0.923101 0.044894
vt 0.928688 0.941618
vt 0.967698 0.925307
vt 0.967945 0.074643
vt 0.981434 0.930944
vt 0.997695 0.955106
vt 0.997744 0.044646
vt 0.992108 0.983690
vt 0.981434 0.005636
vt 0.953098 1.000000
vt 0.939362 0.994363
vt 0.923101 0.970201
vt 0.923051 0.030046
vt 0.939152 0.931084
vt 0.939362 0.069056
vt 0.953098 0.074693
vt 0.992108 0.058382
vt 0.939152 0.005777
vt 0.923051 0.955354
vt 0.967945 0.999951
s 1
f 27/28/1 14/15/2 9/9/3
f 5/5/4 4/4/5 21/22/6
f 17/18/7 16/17/8 10/10/9
f 9/9/3 31/32/10 13/13/11
f 7/7/12 32/34/13 6/6/14
f 18/19/15 29/30/16 19/20/17
f 13/14/11 24/25/18 25/26/19
f 20/21/20 3/3/21 4/4/5
f 15/16/22 28/29/23 16/17/8
f 25/26/19 12/12/24 11/11/25
f 32/34/13 21/22/6 6/6/14
f 1/1/26 10/10/9 29/30/16
f 11/11/25 23/24/27 30/31/28
f 8/8/29 27/28/1 28/29/23
f 2/2/30 19/20/17 3/3/21
f 30/31/28 22/23/31 7/7/12
f 35/37/32 48/50/32 45/47/32
f 49/51/33 52/54/33 55/57/33
f 27/28/1 26/27/34 14/15/2
f 5/5/4 20/21/20 4/4/5
f 17/18/7 15/16/22 16/17/8
f 9/9/3 14/15/2 31/32/10
f 7/7/12 22/23/31 32/34/13
f 18/19/15 1/1/26 29/30/16
f 13/14/11 31/33/10 24/25/18
f 20/21/20 2/2/30 3/3/21
f 15/16/22 8/8/29 28/29/23
f 25/26/19 24/25/18 12/12/24
f 32/34/13 5/5/4 21/22/6
f 1/1/26 17/18/7 10/10/9
f 11/11/25 12/12/24 23/24/27
f 8/8/29 26/27/34 27/28/1
f 2/2/30 18/19/15 19/20/17
f 30/31/28 23/24/27 22/23/31
f 45/47/32 57/59/32 43/45/32
f 43/45/32 62/64/32 39/41/32
f 39/41/32 38/40/32 53/55/32
f 53/55/32 36/38/32 35/37/32
f 35/37/32 51/53/32 61/63/32
f 61/63/32 42/44/32 48/50/32
f 48/50/32 60/62/32 59/61/32
f 59/61/32 41/43/32 45/47/32
f 45/47/32 43/45/32 39/41/32
f 39/41/32 53/55/32 35/37/32
f 35/37/32 61/63/32 48/50/32
f 48/50/32 59/61/32 45/47/32
f 45/47/32 39/41/32 35/37/32
f 55/57/33 44/46/33 56/58/33
f 56/58/33 63/65/33 46/48/33
f 46/48/33 58/60/33 40/42/33
f 40/42/33 47/49/33 49/51/33
f 49/51/33 33/35/33 50/52/33
f 50/52/33 34/36/33 52/54/33
f 52/54/33 37/39/33 64/66/33
f 64/66/33 54/56/33 55/57/33
f 55/57/33 56/58/33 46/48/33
f 46/48/33 40/42/33 49/51/33
f 49/51/33 50/52/33 52/54/33
f 52/54/33 64/66/33 55/57/33
f 55/57/33 46/48/33 49/51/33
